<svg width="50" height="50" viewBox="0 0 50 50" fill="none" xmlns="http://www.w3.org/2000/svg">
<path d="M25.1214 49.9798C20.22 49.9798 15.3201 49.9798 10.4186 49.9798C10.0225 49.9798 9.62482 50.0009 9.23168 49.9633C8.36858 49.8834 8.10197 49.6153 8.02063 48.7733C7.99201 48.4781 8.01009 48.1798 8.01009 47.8831C8.01009 42.7843 8.00707 37.6856 8.0146 32.5868C8.0146 31.8939 8.03419 31.1995 8.08992 30.5096C8.29327 28.0213 10.2936 26.0646 12.7986 26.0541C20.9174 26.0209 29.0363 26.0254 37.1551 26.0541C39.7956 26.0631 41.8562 28.1598 42.0023 30.8922C42.0521 31.8306 42.0174 32.7736 42.0174 33.7135C42.0174 38.2188 42.0174 42.7226 42.0174 47.2279C42.0174 47.7234 42.0295 48.219 41.9948 48.7131C41.9285 49.659 41.6815 49.9362 40.7175 49.9618C39.0847 50.0024 37.4504 49.9828 35.8176 49.9828C32.2537 49.9844 28.6883 49.9828 25.1245 49.9828V49.9798H25.1214ZM9.96675 42.0719C10.6883 42.0719 11.22 42.0719 11.7517 42.0719C19.8223 42.0719 27.893 42.0719 35.9637 42.0749C36.3598 42.0749 36.7575 42.0688 37.1506 42.102C37.7064 42.1487 37.964 42.5629 37.8676 43.0253C37.8028 43.3371 37.4775 43.7167 37.1807 43.8267C36.7846 43.9728 36.3026 43.8975 35.8582 43.8975C27.8373 43.9005 19.8148 43.8975 11.7939 43.902C11.2185 43.902 10.6446 43.9427 9.96675 43.9683C9.96675 44.7786 9.96223 45.4173 9.96675 46.056C9.97126 46.6811 9.98633 47.3062 9.99687 47.9012C12.2156 48.1753 38.8889 48.091 39.9884 47.8168C40.0035 47.5412 40.0351 47.2505 40.0351 46.9582C40.0382 41.8083 40.0351 36.6598 40.0351 31.5098C40.0351 31.2628 40.0382 31.0127 40.0141 30.7672C39.8695 29.3152 38.9401 28.2653 37.5076 28.0393C36.7786 27.9249 36.0284 27.9053 35.2873 27.9038C28.3554 27.8947 21.4235 27.8962 14.4916 27.9038C13.8996 27.9038 13.3001 27.9158 12.7157 27.9987C11.0302 28.2382 10.0586 29.282 9.98181 30.9796C9.92758 32.165 9.96825 33.3565 9.96675 34.5435C9.96675 36.9656 9.96675 39.3877 9.96675 42.0734V42.0719Z" fill="white"/>
<path d="M25.9258 14.0113C28.6778 15.3233 31.127 16.4937 33.5762 17.658C38.2201 19.8647 42.87 22.0624 47.5108 24.2781C49.1271 25.0494 50.0308 26.3297 49.9992 28.1523C49.9706 29.7188 48.871 31.2101 47.2924 31.6951C46.5619 31.9195 45.7394 31.8984 44.9592 31.8954C44.4666 31.8939 44.1518 31.546 44.1367 31.0188C44.1202 30.484 44.4275 30.1873 44.923 30.106C45.4096 30.0261 45.9142 30.0427 46.3962 29.9448C47.303 29.761 47.9311 29.1013 48.0064 28.2397C48.0817 27.3901 47.7985 26.6716 47.0107 26.2454C46.3585 25.8929 45.6927 25.5645 45.0224 25.2452C38.9943 22.3772 32.9481 19.5469 26.9456 16.6262C25.5733 15.959 24.4361 15.9484 23.0458 16.6292C16.6064 19.7834 10.1159 22.8306 3.64337 25.917C3.37526 26.045 3.09208 26.152 2.84956 26.3177C2.17927 26.7771 1.86596 27.4444 1.98948 28.2382C2.12052 29.0757 2.57241 29.7249 3.45358 29.9147C3.98229 30.0291 4.53509 30.0231 5.07284 30.1029C5.57744 30.1767 5.88322 30.481 5.86665 31.0067C5.85158 31.5113 5.57895 31.8111 5.0653 31.918C3.04237 32.3398 0.900435 31.1965 0.249721 29.3317C-0.449193 27.3329 0.340098 25.3446 2.35249 24.3565C5.72506 22.7011 9.13528 21.1195 12.5289 19.5062C16.1018 17.8087 19.6793 16.1171 23.2461 14.4045C23.5835 14.2433 24.046 14.0128 24.1348 13.7191C24.6394 12.0517 25.9258 11.0334 27.0917 9.89767C27.5496 9.45181 28.006 8.98035 28.3509 8.44712C29.6855 6.39256 29.0513 3.66016 27.0088 2.48978C24.4331 1.01513 21.2247 2.72476 20.9822 5.7072C20.946 6.15004 20.9731 6.59892 20.934 7.04026C20.8873 7.56143 20.5574 7.82654 20.0498 7.86269C19.5075 7.90185 19.2138 7.6021 19.1385 7.09599C18.4562 2.5666 22.026 -0.302868 25.4709 0.025501C27.8388 0.249937 29.577 1.47756 30.4959 3.66016C31.4569 5.94218 31.0833 8.13683 29.565 10.0799C28.961 10.8527 28.1717 11.4793 27.4938 12.1978C26.9953 12.7265 26.5404 13.2943 25.9243 14.0113H25.9258Z" fill="white"/>
</svg>
