<svg width="50" height="55" viewBox="0 0 50 55" fill="none" xmlns="http://www.w3.org/2000/svg">
<path d="M20.6008 52.3044C24.2081 52.3044 27.6004 52.3044 30.9927 52.3044C31.4785 52.3044 31.9643 52.288 32.4484 52.3143C33.1032 52.3487 33.6136 52.6015 33.6563 53.3466C33.6908 53.9341 33.2591 54.3247 32.478 54.41C32.1054 54.4511 31.7247 54.4248 31.3472 54.4248C23.3662 54.4248 15.3869 54.4248 7.40588 54.4248C7.02841 54.4248 6.6411 54.4593 6.2784 54.3871C5.73025 54.2771 5.39874 53.857 5.52511 53.3301C5.61045 52.974 5.91734 52.5571 6.23901 52.4029C6.59515 52.2306 7.08093 52.311 7.51092 52.3093C10.5307 52.3044 13.5504 52.3077 16.5701 52.3077C17.1511 52.3077 17.7321 52.3077 18.3918 52.3077C18.446 51.7989 18.5166 51.4379 18.5182 51.0785C18.5264 47.1955 18.5051 43.3141 18.5363 39.4311C18.5428 38.6253 18.2967 37.9951 17.8355 37.3518C12.1882 29.4643 6.5574 21.5654 0.939692 13.6566C0.463754 12.987 -0.383087 12.3256 0.194603 11.3721C0.709929 10.5236 1.66673 10.883 2.43479 10.8814C13.7572 10.8634 25.0812 10.8617 36.4036 10.8847C37.2718 10.8863 38.396 10.4481 38.9359 11.4279C39.5317 12.5078 38.442 13.2004 37.925 13.9405C32.4944 21.718 27.0424 29.4791 21.5478 37.2123C20.8208 38.2347 20.4794 39.2424 20.5007 40.4913C20.5582 43.8327 20.5155 47.1774 20.5204 50.5205C20.5204 51.0473 20.5664 51.5757 20.6008 52.3044ZM3.13885 13.0592C3.98569 14.2721 4.71601 15.1993 5.31504 16.2053C5.91078 17.2081 6.6969 17.5117 7.84407 17.5035C14.046 17.4526 20.2496 17.4805 26.4516 17.4805C26.9374 17.4805 27.4232 17.4625 27.9073 17.4937C28.8707 17.556 29.2744 17.8859 29.212 18.5489C29.1415 19.3055 28.6212 19.5041 27.9582 19.5024C27.5807 19.5024 27.2033 19.5024 26.8258 19.5024C20.9471 19.5024 15.0685 19.5024 9.18819 19.5123C8.79595 19.5123 8.40535 19.5845 7.79648 19.6436C11.7911 25.2432 15.6511 30.6542 19.6424 36.2489C25.1502 28.4337 30.5168 20.8663 35.9539 13.0592H3.13885Z" fill="white"/>
<path d="M37.7084 23.7908C37.0617 23.7908 36.4135 23.8187 35.7685 23.7826C35.1924 23.7498 34.8773 23.369 34.9052 22.816C34.9299 22.3006 35.1793 21.8641 35.7767 21.8362C36.6383 21.7984 37.5032 21.8362 38.3632 21.7787C42.2216 21.5244 45.1231 19.7207 46.8923 16.2694C48.9027 12.3486 47.9476 7.60564 44.6406 4.62036C41.3813 1.67939 36.6843 1.25269 32.9588 3.57494C31.6065 4.4185 30.5693 5.57388 29.7684 6.94589C29.5518 7.31844 29.363 7.70739 29.13 8.06845C28.8214 8.54603 28.3373 8.6445 27.8482 8.46397C27.305 8.26375 27.1983 7.7714 27.3099 7.25607C27.3772 6.94589 27.5102 6.639 27.6644 6.35836C30.2017 1.74668 34.7198 -0.91857 40.7232 0.290969C46.0307 1.36101 49.7594 6.16634 49.9892 11.51C50.2436 17.4001 45.9733 22.322 41.0744 23.5052C40.71 23.5939 40.3391 23.6776 39.9666 23.712C39.2166 23.781 38.4633 23.8138 37.7116 23.8614C37.7116 23.8384 37.71 23.8138 37.7084 23.7908Z" fill="white"/>
</svg>
