<svg width="50" height="55" viewBox="0 0 50 55" fill="none" xmlns="http://www.w3.org/2000/svg">
<path d="M22.8715 45.5597C29.6538 45.5597 36.4344 45.5597 43.2167 45.5597C43.6474 45.5597 44.0782 45.5597 44.5089 45.5711C45.1591 45.5875 45.5326 45.9511 45.5342 46.5735C45.5391 47.7543 45.6226 48.9598 45.4146 50.1079C45.0199 52.283 42.9677 53.9781 40.7468 54.1747C40.5863 54.1894 40.4242 54.1828 40.262 54.1828C28.6891 54.1828 17.1178 54.1927 5.54487 54.173C2.82279 54.1681 0.75912 52.5778 0.172776 49.9458C-0.0679859 48.8648 0.00735443 47.7036 0.0253706 46.58C0.0351976 45.9839 0.429915 45.599 1.07195 45.5744C1.5027 45.558 1.93345 45.558 2.36256 45.558C9.19887 45.558 16.0336 45.558 22.8699 45.5564L22.8715 45.5597ZM43.4017 47.7249H2.30032C1.86138 50.5157 3.05045 52.0406 5.79873 52.0488C17.1391 52.0782 28.4811 52.0225 39.8214 52.0962C42.0653 52.111 43.9946 50.234 43.4001 47.7265L43.4017 47.7249Z" fill="white"/>
<path d="M39.0418 34.5338C39.0418 35.6475 39.0418 36.5499 39.0418 37.4524C39.0418 38.797 39.05 40.1433 39.0386 41.488C39.0287 42.7934 38.7978 43.2012 38.1001 43.2274C37.3434 43.2552 37.0846 42.8032 37.0682 41.4143C37.065 41.0916 37.0682 40.769 37.0682 40.4463C37.0682 35.5509 37.0682 30.6537 37.0682 25.7583C37.0682 25.1703 37.0682 24.5839 37.0682 23.9075C36.644 23.8076 36.2985 23.6536 35.9545 23.6536C27.1839 23.6422 18.415 23.6438 9.64436 23.6504C9.38395 23.6504 9.1219 23.7175 8.69934 23.7748C8.67149 24.3677 8.62399 24.9361 8.62236 25.506C8.61744 30.6718 8.62072 35.8358 8.61908 41.0016C8.61908 41.4323 8.62727 41.8631 8.59779 42.2922C8.55684 42.8556 8.22764 43.1668 7.66914 43.2208C7.08607 43.2765 6.73885 42.9784 6.64877 42.4248C6.57179 41.9499 6.53084 41.4634 6.53084 40.9819C6.52266 35.2249 6.52593 29.4679 6.52757 23.711C6.52757 23.3883 6.51938 23.0624 6.55869 22.7446C6.64058 22.083 6.95668 21.6391 7.69862 21.6489C7.96722 21.6522 8.23583 21.6407 8.50607 21.6407C20.1281 21.6407 31.7486 21.6358 43.3706 21.6473C46.417 21.6506 48.6444 23.2409 49.6419 26.0531C51.0602 30.0592 48.0892 34.4126 43.8358 34.5289C42.3339 34.5698 40.8303 34.5354 39.0418 34.5354V34.5338ZM39.1254 32.5569C40.3374 32.5569 41.3495 32.5651 42.3617 32.5536C42.8973 32.5471 43.4443 32.5651 43.9668 32.4685C44.4876 32.3718 45.0117 32.2015 45.4883 31.9673C47.1589 31.1434 48.0122 29.5023 47.8272 27.5762C47.6617 25.8647 46.4022 24.1827 44.6776 23.9272C42.9481 23.67 41.1612 23.7961 39.4005 23.7781C39.2941 23.7781 39.1876 23.9861 39.127 24.05V32.5585L39.1254 32.5569Z" fill="white"/>
<path d="M23.8231 7.40469C23.8231 9.3357 23.8231 11.2683 23.8231 13.1993C23.8231 13.5204 23.9181 13.9151 23.769 14.146C23.5676 14.4588 23.1745 14.8323 22.8584 14.8388C22.5407 14.8437 22.1066 14.4932 21.9248 14.182C21.7578 13.8954 21.8413 13.4516 21.8397 13.0765C21.8348 9.32096 21.8331 5.56377 21.8348 1.80822C21.8348 1.43315 21.7545 0.999128 21.915 0.701043C22.087 0.383303 22.4981 0.00496365 22.8093 5.01521e-05C23.127 -0.00486335 23.5594 0.352184 23.7412 0.66501C23.9083 0.953269 23.8198 1.39548 23.8214 1.77055C23.8264 3.64914 23.8231 5.5261 23.8231 7.40469Z" fill="white"/>
<path d="M15.1065 9.68947C15.1065 11.0292 15.1049 12.369 15.1065 13.7087C15.1082 14.3769 14.9051 14.8798 14.1337 14.9027C13.5047 14.9207 13.1592 14.5669 13.1493 13.7251C13.1198 10.9391 13.1166 8.15155 13.1461 5.36559C13.1542 4.58434 13.5899 4.18308 14.1992 4.2404C14.8609 4.30264 15.1016 4.7383 15.1033 5.34921C15.1065 6.79542 15.1033 8.24327 15.1033 9.68947H15.1065Z" fill="white"/>
<path d="M32.5364 9.67309C32.5364 11.0112 32.5314 12.3493 32.538 13.6874C32.5413 14.3638 32.3185 14.8486 31.5651 14.8896C30.9395 14.924 30.5726 14.5637 30.5644 13.7333C30.5349 11.0047 30.5497 8.27438 30.5513 5.54412C30.5513 4.91682 30.661 4.32393 31.4275 4.24695C32.0254 4.18799 32.574 4.6302 32.5462 5.49826C32.5036 6.88878 32.5347 8.28094 32.5347 9.67309H32.5364Z" fill="white"/>
</svg>
