<svg width="50" height="32" viewBox="0 0 50 32" fill="none" xmlns="http://www.w3.org/2000/svg">
<path d="M46.0037 28.0113C46.0037 29.0677 46.0308 29.9554 45.9946 30.8415C45.966 31.5453 45.5711 31.9416 45.0181 31.8753C44.4273 31.8045 44.1907 31.4172 44.1801 30.8445C44.1636 29.9192 44.1289 28.9924 44.1003 28.0037H5.97054C5.95246 28.6879 5.93437 29.3134 5.92081 29.9388C5.91327 30.2854 5.92684 30.6335 5.90272 30.9786C5.86203 31.5664 5.54857 31.8934 4.94123 31.8572C4.41226 31.8256 4.13044 31.5106 4.1214 30.9907C4.10633 30.0563 4.11688 29.1205 4.11688 28.0821C3.65271 28.0248 3.28047 27.9661 2.90521 27.9344C1.27158 27.8033 0.106631 26.7122 0.0538845 25.0891C-0.0124254 23.0606 -0.0199606 21.0276 0.0448423 19.0006C0.103617 17.1801 1.26555 16.0951 3.10113 16.08C6.5176 16.0529 9.93407 16.0679 13.3505 16.0679C24.2435 16.0679 35.1364 16.0679 46.0293 16.0679C46.4256 16.0679 46.822 16.0544 47.2168 16.0755C48.7766 16.1599 49.8813 17.1229 49.9386 18.6601C50.0199 20.8845 50.0184 23.1164 49.9461 25.3423C49.9009 26.7604 48.7887 27.7747 47.3449 27.9254C46.9606 27.9661 46.5718 27.9766 46.0037 28.0113ZM25.0874 26.0777C31.7681 26.0777 38.4489 26.0777 45.1281 26.0777C45.6224 26.0777 46.1197 26.0943 46.6125 26.0551C47.8031 25.9572 48.0924 25.6784 48.1211 24.4953C48.1542 23.1104 48.1331 21.7239 48.1286 20.3389C48.1226 18.0181 47.99 17.8824 45.7143 17.8824C32.056 17.8824 18.3991 17.8824 4.74079 17.8824C4.49364 17.8824 4.24648 17.8854 3.99782 17.8885C2.24211 17.9111 2.00099 18.1386 1.98441 19.8401C1.97386 20.9779 1.9829 22.1157 1.98441 23.255C1.98441 25.1388 2.90622 26.0812 4.74984 26.0823C11.5285 26.0823 18.3087 26.0823 25.0874 26.0823V26.0777Z" fill="white"/>
<path d="M25.0784 0.0314793C30.2777 0.0314793 35.48 0.11286 40.6778 0.00133843C43.6979 -0.0634645 46.189 2.23176 46.0278 5.39505C45.9163 7.56821 46.0052 9.75192 46.0052 11.9311C46.0052 12.0803 46.0082 12.228 46.0052 12.3772C45.9781 13.4412 45.6736 13.9204 45.0331 13.9144C44.4635 13.9099 44.1832 13.4683 44.1741 12.445C44.1575 10.5145 44.1786 8.58245 44.1621 6.65042C44.156 5.95869 44.1274 5.26243 44.0325 4.57823C43.835 3.16915 42.964 2.26643 41.5549 2.00269C41.0244 1.90323 40.4743 1.86706 39.9333 1.86706C29.9295 1.85952 19.9273 1.86254 9.92352 1.86405C9.77432 1.86405 9.62663 1.86254 9.47743 1.86706C7.21235 1.95145 5.99767 3.1164 5.9404 5.39053C5.88313 7.61794 5.92232 9.84686 5.91779 12.0758C5.91779 12.4224 5.93889 12.7735 5.88765 13.1141C5.81381 13.616 5.48678 13.9279 4.9774 13.9099C4.46802 13.8918 4.17264 13.5678 4.13195 13.0523C4.10934 12.757 4.11085 12.4586 4.11085 12.1617C4.10783 9.88303 4.1003 7.60589 4.10633 5.32723C4.11236 1.94693 6.05343 0.0344934 9.47894 0.0314793C14.6782 0.0284652 19.8791 0.0314793 25.0784 0.0314793Z" fill="white"/>
<path d="M34.1372 8.05197C35.1273 8.05197 36.119 8.02334 37.1091 8.05649C38.8226 8.11376 39.9514 9.24856 40.0267 10.9741C40.0554 11.6161 40.0433 12.2627 40.0192 12.9047C39.9981 13.4638 39.7253 13.8466 39.13 13.9038C38.5709 13.9581 38.1791 13.5919 38.1037 12.882C38.0465 12.3425 38.0992 11.7925 38.0646 11.2499C38.0028 10.305 37.7285 9.93276 36.8333 9.90413C35.0022 9.84686 33.1682 9.84536 31.3371 9.90413C30.3907 9.93427 30.0531 10.3547 29.9808 11.3298C29.9401 11.8723 29.9747 12.4194 29.9506 12.9634C29.925 13.5406 29.6311 13.9129 29.0283 13.8978C28.421 13.8827 28.1648 13.4803 28.1557 12.9122C28.1437 12.1692 28.103 11.4232 28.1588 10.6848C28.2703 9.16568 29.3358 8.13034 30.8684 8.06252C31.9565 8.01429 33.0476 8.05348 34.1372 8.05197Z" fill="white"/>
<path d="M16.1175 8.05046C17.1061 8.05046 18.0947 8.02183 19.0833 8.05649C20.7848 8.11677 21.8548 9.16116 21.9407 10.8355C21.9769 11.5257 21.9482 12.2189 21.9422 12.9107C21.9377 13.4894 21.6528 13.8812 21.0681 13.8978C20.4834 13.9159 20.1744 13.5406 20.1503 12.9634C20.1292 12.4706 20.1564 11.9748 20.1277 11.482C20.0629 10.3593 19.6907 9.9192 18.6101 9.89056C16.8815 9.84535 15.1499 9.84536 13.4214 9.89961C12.3815 9.93126 12.0274 10.3367 11.946 11.369C11.9038 11.91 11.9384 12.4571 11.8993 12.9981C11.8571 13.5647 11.5572 13.9415 10.9513 13.9008C10.445 13.8677 10.124 13.5346 10.1104 13.0312C10.0863 12.1436 10.0275 11.2409 10.1511 10.3683C10.3334 9.07676 11.4969 8.13938 12.8562 8.058C13.3973 8.02484 13.9428 8.05046 14.4868 8.04896C15.0309 8.04745 15.5749 8.04896 16.1175 8.04896V8.05046Z" fill="white"/>
</svg>
