<svg width="50" height="63" viewBox="0 0 50 63" fill="none" xmlns="http://www.w3.org/2000/svg">
<path d="M27.4757 12.4091C27.4757 10.0678 27.5491 7.78495 27.4455 5.51148C27.389 4.25891 26.6073 3.27946 25.4263 2.84058C24.5787 2.52603 23.6332 2.34521 22.7272 2.33767C17.5907 2.29058 12.4542 2.3113 7.31772 2.31884C6.76395 2.31884 6.19699 2.33202 5.65641 2.44127C3.79356 2.8161 2.62763 4.14778 2.49578 6.0483C2.43551 6.91098 2.45623 7.7793 2.45623 8.64574C2.45623 25.6638 2.45623 42.6837 2.45623 59.7017C2.45623 60.135 2.4713 60.5682 2.45058 61.0014C2.41291 61.7529 2.12472 62.3387 1.28465 62.4141C0.612214 62.4744 0.143205 61.9733 0.0433763 61.0862C-0.00559652 60.6586 0.0283077 60.2216 0.0283077 59.7884C0.0283077 42.0885 0.0622119 24.3886 5.41773e-05 6.68871C-0.0150144 2.5863 3.11548 -0.0845972 6.57371 0.00204699C12.2018 0.143315 17.8356 0.0246498 23.4674 0.0453691C27.4531 0.0604376 29.9394 2.55805 29.9657 6.53049C29.9789 8.4442 29.9676 10.3579 29.9676 12.3187C41.0788 14.3831 46.462 21.0942 46.3735 32.3938C47.029 32.4277 47.6242 32.4597 48.2194 32.4917C49.4155 32.5576 49.9768 32.9325 49.9994 33.6859C50.022 34.445 49.4324 34.8782 48.2891 34.9291C48.0423 34.9404 47.7937 34.9272 47.547 34.9272C35.17 34.9272 22.7912 34.9272 10.4143 34.9272C9.85677 34.9272 9.29923 34.9291 8.74546 34.8933C8.09563 34.8499 7.72645 34.4695 7.67936 33.8272C7.62474 33.0945 7.99015 32.6066 8.71156 32.5445C9.50266 32.4748 10.3032 32.5294 11.3316 32.5294C11.3542 31.5744 11.4145 30.7909 11.3825 30.0129C11.0415 21.8477 17.4231 13.9555 26.1609 12.7105C26.5772 12.6502 26.9859 12.5259 27.4776 12.4148L27.4757 12.4091ZM43.6781 32.407C44.554 25.4246 41.3237 19.5987 35.7087 16.5737C30.4931 13.7634 23.8781 14.5018 19.2087 18.3932C14.8256 22.0454 13.3206 26.809 13.7558 32.4088H43.6781V32.407Z" fill="white"/>
<path d="M26.2363 56.3565C26.2363 57.0949 26.2815 57.837 26.225 58.5716C26.1572 59.4456 25.6995 59.8731 24.9743 59.86C24.187 59.8449 23.8686 59.3062 23.8441 58.6526C23.7876 57.0534 23.7707 55.4505 23.8253 53.8514C23.8554 52.9887 24.4167 52.4688 25.0798 52.5498C25.8803 52.6478 26.2363 53.1714 26.24 53.9531C26.2438 54.7536 26.24 55.5541 26.24 56.3546H26.2344L26.2363 56.3565Z" fill="white"/>
<path d="M16.3268 56.0683C16.3268 55.33 16.2854 54.5879 16.3381 53.8533C16.3965 53.0302 16.9258 52.4877 17.5775 52.5423C18.3046 52.6045 18.6964 53.1017 18.7133 53.7742C18.7529 55.4355 18.7585 57.1005 18.6907 58.76C18.6625 59.4343 18.201 59.8976 17.4551 59.8581C16.7224 59.8185 16.3419 59.3759 16.3249 58.6564C16.3042 57.7956 16.3193 56.9329 16.3193 56.0702H16.3268V56.0683Z" fill="white"/>
<path d="M16.3174 43.5558C16.3174 42.8174 16.3136 42.0772 16.3174 41.3388C16.3231 40.6005 16.728 40.1786 17.4381 40.1258C18.1727 40.0712 18.653 40.5082 18.6756 41.2051C18.7321 42.8645 18.7265 44.5277 18.6756 46.1871C18.6549 46.8765 18.2292 47.3493 17.4758 47.3116C16.7676 47.2758 16.3306 46.8841 16.3174 46.1419C16.3005 45.2793 16.3136 44.4185 16.3136 43.5558H16.3174Z" fill="white"/>
<path d="M26.2269 43.7366C26.2269 44.539 26.24 45.3433 26.225 46.1457C26.2099 46.8897 25.7767 47.2871 25.0666 47.3229C24.3245 47.3606 23.8667 46.9123 23.8441 46.2154C23.7933 44.5503 23.7914 42.8815 23.8479 41.2164C23.8724 40.5233 24.3263 40.0768 25.0798 40.1296C25.8031 40.1786 26.2061 40.5967 26.2212 41.3294C26.2382 42.1318 26.225 42.9342 26.2269 43.7385V43.7366Z" fill="white"/>
<path d="M33.7027 56.2021C33.7027 56.9423 33.7027 57.6826 33.7027 58.4228C33.7027 59.1781 33.4767 59.7752 32.6084 59.8524C31.8926 59.9165 31.4726 59.504 31.4406 58.5358C31.3878 56.9969 31.3897 55.4524 31.4349 53.9117C31.4632 52.9812 31.9303 52.4707 32.5839 52.5498C33.407 52.6478 33.7009 53.2091 33.6971 53.9832C33.6933 54.7235 33.6971 55.4637 33.6971 56.204H33.7046L33.7027 56.2021Z" fill="white"/>
<path d="M41.1654 56.285C41.1654 57.0874 41.1843 57.8879 41.1598 58.6884C41.1372 59.3966 40.8094 59.875 40.0334 59.86C39.2668 59.8449 38.9353 59.3646 38.9296 58.6564C38.9146 56.9913 38.9165 55.3281 38.9391 53.663C38.9466 53.017 39.3327 52.6007 39.9637 52.5668C40.6983 52.5272 41.1146 52.9774 41.1485 53.695C41.188 54.5558 41.1579 55.4204 41.1579 56.2831H41.1673L41.1654 56.285Z" fill="white"/>
<path d="M33.6971 43.9306C33.6971 44.6728 33.7084 45.413 33.6933 46.1551C33.6783 46.8972 33.2752 47.3022 32.5368 47.3079C31.8757 47.3116 31.4651 46.9123 31.45 46.2832C31.4104 44.556 31.4142 42.8269 31.4538 41.0977C31.4688 40.4404 31.919 40.1032 32.5707 40.1277C33.2092 40.1522 33.6331 40.4912 33.6575 41.1524C33.6914 42.0772 33.667 43.0039 33.667 43.9306C33.6764 43.9306 33.6858 43.9306 33.6952 43.9306H33.6971Z" fill="white"/>
<path d="M38.9165 43.7517C38.9165 42.9512 38.9127 42.1488 38.9165 41.3483C38.9202 40.6231 39.263 40.156 40.0108 40.1409C40.7548 40.1258 41.1504 40.5666 41.1579 41.2974C41.1767 42.9003 41.173 44.5032 41.1673 46.1061C41.1654 46.8313 40.8019 47.2985 40.0654 47.3173C39.3233 47.3361 38.9391 46.8935 38.924 46.1589C38.9089 45.3584 38.9202 44.556 38.9202 43.7555H38.9146L38.9165 43.7517Z" fill="white"/>
</svg>
