<svg width="170" height="70" viewBox="0 0 170 70" fill="none" xmlns="http://www.w3.org/2000/svg">
<path d="M84.457 26.2249C84.457 24.4403 85.3963 23.4997 87.1822 23.4997H89.8134C91.5981 23.4997 92.4447 24.439 92.4447 26.2249V54.2331C92.4447 55.9238 91.5993 56.8644 89.8134 56.8644H87.1822C85.3963 56.8644 84.457 55.9251 84.457 54.2331V26.2249Z" fill="white"/>
<path d="M60.1982 0C51.0847 0 44.2254 5.45034 44.2254 17.3791V35.2303C44.2254 45.0991 51.0847 50.5494 60.1982 50.5494C69.3116 50.5494 75.7012 44.8186 75.7012 36.1734C75.7012 34.3888 74.762 33.5422 72.9761 33.5422H70.0631C68.5589 33.5422 67.7136 34.3875 67.7136 35.8904C67.7136 40.3062 64.6127 43.1253 60.1969 43.1253C55.781 43.1253 52.2105 40.7759 52.2105 33.7288V16.8168C52.2105 9.76969 55.781 7.42151 60.1969 7.42151C64.6127 7.42151 68.1832 9.76969 68.1832 16.8168V21.7936H58.586C57.7136 21.7936 57.0059 22.5013 57.0059 23.3736V27.1655C57.0059 28.0378 57.7136 28.7455 58.586 28.7455H73.4457C73.5538 28.7455 73.6593 28.7378 73.7635 28.7249C75.3358 28.6245 76.1696 27.7869 76.1696 26.1143V16.3459C76.1709 5.45033 69.3116 0 60.1982 0Z" fill="white"/>
<path d="M116.684 7.4228C120.912 7.4228 124.201 9.39527 124.201 13.9063C124.201 15.4092 124.952 16.2545 126.549 16.2545H129.462C131.247 16.2545 132.093 15.4092 132.093 13.6233V13.1536C132.093 5.44905 125.704 0 116.684 0C107.665 0 101.087 4.88548 101.087 13.6233C101.087 19.7362 103.848 23.0983 107.182 25.2741H107.185C113.892 29.6487 124.107 29.0697 124.107 36.4552V36.6431C124.107 41.3407 120.818 43.1266 116.496 43.1266C112.174 43.1266 108.98 41.1014 108.98 35.8878C108.98 34.385 108.228 33.5396 106.632 33.5396H103.718C101.934 33.5396 101.087 34.385 101.087 36.1709V37.3971C101.087 45.1017 107.477 50.5507 116.496 50.5507C125.516 50.5507 132.093 45.6652 132.093 36.9274C132.093 30.8145 129.592 27.4524 126.258 25.2766H126.256C119.548 20.902 109.074 21.481 109.074 14.0955V13.9076C109.074 9.20998 112.362 7.42409 116.684 7.42409V7.4228Z" fill="white"/>
<path d="M154.403 49.4416C150.175 49.4416 146.886 47.4691 146.886 42.9581C146.886 41.4552 146.135 40.6099 144.538 40.6099H141.625C139.84 40.6099 138.994 41.4552 138.994 43.2411V43.7108C138.994 51.4153 145.383 56.8644 154.403 56.8644C163.423 56.8644 170 51.9789 170 43.2411C170 37.1282 167.239 33.7661 163.905 31.5903H163.902C157.195 27.2156 146.98 27.7946 146.98 20.4092V20.2213C146.98 15.5237 150.269 13.7378 154.591 13.7378C159.117 13.7378 162.108 15.763 162.108 20.9766C162.108 22.4794 162.859 23.3248 164.456 23.3248H167.369C169.153 23.3248 170 22.4794 170 20.6935V19.4673C170 11.7627 163.61 6.31369 154.591 6.31369C145.571 6.31369 138.994 11.1992 138.994 19.937C138.994 26.0499 141.495 29.412 144.829 31.5877H144.831C151.539 35.9624 162.014 35.3834 162.014 42.7689V42.9568C162.014 47.6544 158.725 49.4403 154.403 49.4403V49.4416Z" fill="white"/>
<path d="M2.65955 6.31369H5.3191C7.09213 6.31369 8.06743 7.20149 8.06743 8.97324V28.1099H29.9305V8.97452C29.9305 7.20149 30.817 6.31498 32.5901 6.31498H35.2496C37.0227 6.31498 37.9092 7.20278 37.9092 8.97452V54.2061C37.9092 55.9792 37.0227 56.8657 35.2496 56.8657H32.5901C30.817 56.8657 29.9305 55.9792 29.9305 54.2061V35.0643H8.06614V54.2061C8.06614 55.9792 7.09084 56.8657 5.31781 56.8657H2.65827C0.974014 56.8657 -0.00128174 55.9792 -0.00128174 54.2061V8.97452C-0.00128174 7.20149 0.974014 6.31498 2.65827 6.31498L2.65955 6.31369Z" fill="white"/>
<path d="M112.819 56.8644C112.981 56.8644 113.071 56.9544 113.071 57.1166V69.2473C113.071 69.4094 112.981 69.4995 112.819 69.4995H111.52C111.357 69.4995 111.267 69.4094 111.267 69.2473V59.807L107.169 65.3487C107.133 65.3847 107.097 65.4027 107.061 65.4027C107.025 65.4027 106.989 65.3847 106.953 65.3487L102.892 59.807V69.2473C102.892 69.4094 102.802 69.4995 102.64 69.4995H101.341C101.179 69.4995 101.089 69.4094 101.089 69.2473V57.1166C101.089 56.9544 101.179 56.8644 101.341 56.8644H102.64C102.802 56.8644 102.946 56.9364 103.038 57.0625L107.081 62.6042L111.125 57.0625C111.215 56.9364 111.359 56.8644 111.522 56.8644H112.822H112.819Z" fill="white"/>
<path d="M117.711 67.7676H123.92C124.083 67.7676 124.173 67.8577 124.173 68.0198V69.2473C124.173 69.4094 124.083 69.4995 123.92 69.4995H116.158C115.996 69.4995 115.906 69.4094 115.906 69.2473V57.1166C115.906 56.9544 115.996 56.8644 116.158 56.8644H123.92C124.083 56.8644 124.173 56.9544 124.173 57.1166V58.3441C124.173 58.5062 124.083 58.5962 123.92 58.5962H117.711V62.3147H122.711C122.873 62.3147 122.963 62.4048 122.963 62.5669V63.7944C122.963 63.9565 122.873 64.0466 122.711 64.0466H117.711V67.7676Z" fill="white"/>
<path d="M130.96 56.8644C134.444 56.8644 137.097 58.9938 137.097 63.1819C137.097 67.37 134.444 69.4995 130.96 69.4995H126.61C126.448 69.4995 126.357 69.4094 126.357 69.2473V57.1166C126.357 56.9544 126.448 56.8644 126.61 56.8644H130.96ZM130.96 67.7676C133.703 67.7676 135.292 66.0885 135.292 63.1819C135.292 60.2753 133.703 58.5975 130.96 58.5975H128.163V67.7676H130.96Z" fill="white"/>
<path d="M116.491 42.0857C115.995 42.0857 115.556 42.0587 115.152 42.0059C111.697 41.5903 109.949 39.78 109.949 36.6251C109.949 28.8471 102.37 24.9164 101.844 24.6526C99.3618 23.1034 92.8075 20.2663 90.2419 19.4249C85.4079 17.841 81.589 16.5903 81.589 12.5077V12.3199C81.589 8.66315 83.8227 6.80906 88.227 6.80906C88.2965 6.80906 88.3698 6.80906 88.4457 6.81163C88.577 6.8142 88.7159 6.81935 88.8652 6.82707C91.5594 6.9789 94.771 8.04555 94.771 12.2697V12.4279C94.771 12.8127 94.7697 13.2115 94.8019 13.5975C94.8199 13.8214 94.843 14.0131 94.8688 14.2023L94.8803 14.2962C94.9048 14.4647 94.9357 14.6307 94.9678 14.7954L95 14.9614C95.0283 15.0978 95.0618 15.2355 95.0965 15.3718C95.1197 15.4619 95.1403 15.5443 95.1621 15.624C95.1904 15.7257 95.2213 15.826 95.2522 15.9264C95.2921 16.0564 95.3333 16.1837 95.3783 16.3085L95.4336 16.4629C96.7576 20.0386 99.7491 22.3546 101.415 23.4161C101.574 23.5087 101.656 23.5538 101.656 23.5538C101.903 23.7056 102.177 23.8677 102.451 24.0273C102.671 24.1457 102.819 24.2177 102.878 24.246C105.292 25.7501 111.538 28.4637 114.204 29.3785L114.476 29.4699C119.31 31.0538 123.129 32.3044 123.129 36.387V36.5749C123.129 40.2316 120.896 42.0857 116.491 42.0857Z" fill="#533D29"/>
</svg>
