<svg width="27" height="25" viewBox="0 0 27 25" fill="none" xmlns="http://www.w3.org/2000/svg">
<path d="M7.81868 0H18.6648C22.7967 0 26.1538 3.25 26.1538 7.25V17.75C26.1538 19.6728 25.3648 21.5169 23.9604 22.8765C22.5559 24.2362 20.651 25 18.6648 25H7.81868C3.68681 25 0.329666 21.75 0.329666 17.75V7.25C0.329666 5.32718 1.11868 3.48311 2.52315 2.12348C3.92761 0.763837 5.83247 0 7.81868 0ZM7.56043 2.5C6.32762 2.5 5.14529 2.97411 4.27355 3.81802C3.40182 4.66193 2.91208 5.80653 2.91208 7V18C2.91208 20.4875 4.99093 22.5 7.56043 22.5H18.9231C20.1559 22.5 21.3382 22.0259 22.21 21.182C23.0817 20.3381 23.5714 19.1935 23.5714 18V7C23.5714 4.5125 21.4926 2.5 18.9231 2.5H7.56043ZM20.0206 4.375C20.4487 4.375 20.8592 4.53962 21.1619 4.83265C21.4646 5.12567 21.6346 5.5231 21.6346 5.9375C21.6346 6.3519 21.4646 6.74933 21.1619 7.04235C20.8592 7.33538 20.4487 7.5 20.0206 7.5C19.5925 7.5 19.182 7.33538 18.8793 7.04235C18.5766 6.74933 18.4066 6.3519 18.4066 5.9375C18.4066 5.5231 18.5766 5.12567 18.8793 4.83265C19.182 4.53962 19.5925 4.375 20.0206 4.375ZM13.2418 6.25C14.954 6.25 16.5961 6.90848 17.8069 8.08058C19.0176 9.25268 19.6978 10.8424 19.6978 12.5C19.6978 14.1576 19.0176 15.7473 17.8069 16.9194C16.5961 18.0915 14.954 18.75 13.2418 18.75C11.5295 18.75 9.88738 18.0915 8.67664 16.9194C7.4659 15.7473 6.78571 14.1576 6.78571 12.5C6.78571 10.8424 7.4659 9.25268 8.67664 8.08058C9.88738 6.90848 11.5295 6.25 13.2418 6.25ZM13.2418 8.75C12.2144 8.75 11.2291 9.14509 10.5027 9.84835C9.77624 10.5516 9.36813 11.5054 9.36813 12.5C9.36813 13.4946 9.77624 14.4484 10.5027 15.1517C11.2291 15.8549 12.2144 16.25 13.2418 16.25C14.2691 16.25 15.2544 15.8549 15.9808 15.1517C16.7073 14.4484 17.1154 13.4946 17.1154 12.5C17.1154 11.5054 16.7073 10.5516 15.9808 9.84835C15.2544 9.14509 14.2691 8.75 13.2418 8.75Z" fill="white"/>
</svg>
