<svg width="31" height="24" viewBox="0 0 31 24" fill="none" xmlns="http://www.w3.org/2000/svg">
<path d="M30.6224 2.12105C30.7446 2.94988 30.9672 3.77652 30.9716 4.60535C31.0043 9.55426 31.0108 14.5054 30.9803 19.4543C30.9606 22.6668 29.6469 23.9811 26.4783 23.9877C19.1416 24.0052 11.8049 24.003 4.46821 23.9877C1.22976 23.9855 0.0120722 22.7455 0.00552547 19.498C-0.00102126 14.4769 -0.00538575 9.45366 0.0142544 4.43039C0.0164367 3.67373 0.167011 2.91926 0.249937 2.1626C0.455068 2.05544 0.660199 1.94828 0.865329 1.83894C1.27777 2.42065 1.64657 3.04172 2.11139 3.57532C5.02687 6.91688 7.92489 10.2759 10.9233 13.5409C11.7307 14.4201 12.7673 15.2773 13.8671 15.66C16.1432 16.4539 18.1291 15.6819 19.7221 13.8646C22.8383 10.3131 25.983 6.78348 29.0926 3.22761C29.4658 2.80117 29.7059 2.26101 30.0092 1.77333C30.2121 1.88924 30.4173 2.00296 30.6202 2.11886L30.6224 2.12105Z" fill="white"/>
<path d="M28.5449 0.465577C28.1041 1.03417 27.8182 1.4453 27.4909 1.81707C24.4685 5.25922 21.4505 8.70138 18.4106 12.126C16.4509 14.3348 14.4804 14.3676 12.5338 12.1873C9.38919 8.66201 6.28168 5.10395 3.16761 1.55027C2.89702 1.24192 2.69625 0.874524 2.44529 0.507128C4.226 -0.127068 26.1161 -0.194862 28.5471 0.465577H28.5449Z" fill="white"/>
</svg>
