<svg width="19" height="27" viewBox="0 0 19 27" fill="none" xmlns="http://www.w3.org/2000/svg">
<path d="M18.9906 13.5559C18.9906 16.518 19.0117 19.4784 18.9854 22.4405C18.9572 25.3852 17.4154 26.9273 14.4057 26.9673C11.1251 27.0109 7.84288 27.0109 4.56236 26.9673C1.58775 26.929 0.0160531 25.3312 0.00902092 22.4091C-0.00152736 16.4291 -0.00504345 10.4474 0.010779 4.46563C0.0178112 1.77881 1.44886 0.167066 4.15801 0.0834297C7.7286 -0.0280856 11.3062 -0.029828 14.8768 0.0903994C17.6106 0.182748 18.959 1.73002 18.9854 4.49874C19.0135 7.51836 18.9924 10.538 18.9924 13.5576L18.9906 13.5559ZM16.9109 18.9888C16.9918 18.7466 17.0902 18.588 17.092 18.4294C17.1043 13.7946 17.1377 9.15799 17.0972 4.52313C17.0814 2.79639 16.2217 1.98616 14.4584 1.96351C11.2429 1.92169 8.02747 1.93214 4.812 1.9548C2.65312 1.97048 2.00616 2.6326 1.99913 4.78624C1.98682 9.07435 1.9921 13.3625 2.00089 17.6506C2.00089 18.0914 2.08527 18.5322 2.13098 18.9905H16.9091L16.9109 18.9888ZM2.08703 21.1616C2.05363 21.5118 2.00968 21.7871 2.00265 22.0641C1.9499 24.331 2.57225 24.9775 4.84892 25.0019C6.25009 25.0158 7.65301 25.0054 9.05417 25.0054C10.923 25.0054 12.7935 25.0402 14.6623 24.9914C16.1549 24.9531 16.9355 24.2126 17.092 22.7872C17.1465 22.2872 17.1007 21.7749 17.1007 21.1633H2.08703V21.1616Z" fill="white"/>
<path d="M10.3217 3.75124C9.84002 4.14328 9.53588 4.57541 9.2792 4.54927C8.99088 4.51965 8.65158 4.11192 8.53027 3.7948C8.47753 3.65889 8.92232 3.14662 9.14207 3.14487C9.46028 3.14487 9.78024 3.45154 10.3217 3.75124Z" fill="white"/>
<path d="M10.3393 22.8012C9.82068 23.1706 9.54642 23.5086 9.24228 23.5382C9.01549 23.5609 8.50918 23.1183 8.54258 23.0033C8.63575 22.6844 8.90649 22.2645 9.18427 22.1966C9.43391 22.1356 9.78552 22.491 10.3375 22.8012H10.3393Z" fill="white"/>
</svg>
