<svg width="27" height="35" viewBox="0 0 27 35" fill="none" xmlns="http://www.w3.org/2000/svg">
<path d="M13.8216 35C13.5076 34.9412 13.3803 34.958 13.3294 34.902C8.25171 29.4943 3.79639 23.6723 0.76394 16.8594C-1.76499 11.1802 2.23773 3.05178 9.04377 0.736981C17.8045 -2.2412 27.1564 4.1854 26.998 13.2067C26.9754 14.4775 26.7095 15.8266 26.2116 16.9938C23.2923 23.8514 18.5994 29.5167 13.8216 35ZM13.5896 5.21544C9.36059 5.18465 6.05092 8.40075 6.00849 12.5825C5.96606 16.7335 9.23896 20.0419 13.4595 20.1091C17.6008 20.1763 21.0095 16.8538 21.0519 12.7113C21.0944 8.55189 17.8045 5.24623 13.5896 5.21544Z" fill="white"/>
</svg>
