<svg width="27" height="26" viewBox="0 0 27 26" fill="none" xmlns="http://www.w3.org/2000/svg">
<path d="M13.3425 0C20.7116 0 26.685 5.78279 26.685 12.9167C26.685 20.0505 20.7116 25.8333 13.3425 25.8333C11.0716 25.8366 8.83765 25.2762 6.85405 24.2058L6.4471 23.9759L2.40166 25.1281C2.18151 25.1909 1.94844 25.1982 1.72455 25.1494C1.50065 25.1005 1.29335 24.9972 1.1223 24.849C0.951242 24.7009 0.822101 24.5129 0.747115 24.3029C0.67213 24.0929 0.653785 23.8679 0.693821 23.6491L0.728512 23.5083L1.91866 19.592C0.66041 17.5787 -0.00322093 15.2698 1.17541e-05 12.9167C1.17541e-05 5.78279 5.97345 0 13.3425 0ZM13.3425 2.58333C11.4314 2.583 9.55518 3.07941 7.90988 4.02072C6.26458 4.96203 4.91052 6.31372 3.9891 7.93463C3.06768 9.55554 2.61269 11.3862 2.67166 13.2355C2.73062 15.0848 3.30137 16.8848 4.32431 18.4476C4.58849 18.8506 4.7019 19.3466 4.61251 19.8387L4.56047 20.0492L3.97207 21.988L5.97478 21.4184C6.55251 21.2531 7.15292 21.3538 7.62925 21.647C9.02798 22.5044 10.6135 23.0351 12.2606 23.1971C13.9077 23.3591 15.5711 23.1479 17.1194 22.5804C18.6676 22.0128 20.0583 21.1044 21.1814 19.9269C22.3046 18.7494 23.1294 17.3352 23.5907 15.7959C24.052 14.2567 24.1371 12.6347 23.8394 11.0581C23.5416 9.48152 22.8691 7.99361 21.875 6.71199C20.8809 5.43036 19.5925 4.39016 18.1117 3.67361C16.6308 2.95705 14.998 2.58379 13.3425 2.58333ZM9.47585 6.696C9.62357 6.63407 9.7854 6.61044 9.94541 6.62743C10.1054 6.64441 10.2581 6.70143 10.3885 6.79287C11.0609 7.26821 11.5946 7.90629 12.0536 8.52887L12.4899 9.14112L12.6941 9.43175C12.8118 9.59848 12.8697 9.79811 12.8586 9.99981C12.8475 10.2015 12.7681 10.3941 12.6327 10.5478L12.5326 10.6459L11.2998 11.532C11.2404 11.5736 11.1987 11.6346 11.1822 11.7037C11.1658 11.7728 11.1758 11.8454 11.2104 11.9079C11.4906 12.3987 11.9856 13.1311 12.554 13.6813C13.1237 14.2316 13.9149 14.7431 14.4566 15.044C14.574 15.1086 14.7154 15.088 14.8115 15.004L14.8622 14.9459L15.6641 13.764C15.8113 13.5742 16.0287 13.4469 16.2707 13.4088C16.5128 13.3708 16.7606 13.4249 16.9623 13.5599L17.6868 14.0495C18.4073 14.5468 19.0998 15.0815 19.6482 15.7596C19.7501 15.8868 19.815 16.0382 19.8358 16.1979C19.8567 16.3577 19.8329 16.5199 19.7669 16.6677C19.2385 17.8612 17.9003 18.8777 16.51 18.8286L16.2979 18.8157L16.043 18.7925C15.9949 18.7869 15.9469 18.7809 15.8989 18.7744L15.5814 18.7227C14.3485 18.498 12.3725 17.8211 10.3244 15.8397C8.27769 13.857 7.57855 11.944 7.34639 10.7505L7.29302 10.4431L7.25966 10.1745L7.24231 9.94842C7.2402 9.91614 7.23842 9.88385 7.23698 9.85154C7.18628 8.50304 8.24167 7.2075 9.47585 6.696Z" fill="white"/>
</svg>
