<svg width="50" height="42" viewBox="0 0 50 42" fill="none" xmlns="http://www.w3.org/2000/svg">
<path d="M50 10.8116C49.9532 11.7955 49.1036 12.1607 48.4305 11.6793C47.9491 11.3367 47.5265 10.9112 47.0874 10.5097C40.8441 4.81727 33.5142 2.00123 25.0495 1.96803C16.4595 1.93483 9.07226 4.86708 2.73389 10.5897C2.36717 10.9217 2.01705 11.2718 1.64279 11.5963C1.21872 11.963 0.74787 12.0309 0.293621 11.6672C-0.1063 11.3473 -0.112337 10.727 0.366059 10.223C1.08139 9.47145 1.83596 8.74555 2.63429 8.08455C9.79815 2.15063 18.0727 -0.503936 27.3147 0.0785899C35.7341 0.609805 43.0293 3.87557 49.1307 9.73404C49.505 10.0932 49.7887 10.5459 50 10.8116Z" fill="white"/>
<path d="M42.904 17.8517C42.9433 18.7224 42.2506 19.1978 41.6032 18.8386C41.2199 18.6259 40.8954 18.2999 40.5664 18.0011C32.0654 10.2803 19.191 9.93777 10.3309 17.2012C9.79513 17.6404 9.28656 18.1128 8.75383 18.5549C8.11547 19.0846 7.60387 19.1073 7.20395 18.6243C6.75574 18.0841 6.97003 17.6178 7.39561 17.1877C9.01189 15.5563 10.8545 14.2207 12.8632 13.1296C22.0448 8.1419 33.2652 9.27677 41.241 15.9803C41.6952 16.3622 42.1268 16.7741 42.5313 17.2088C42.723 17.414 42.8226 17.7053 42.904 17.8517Z" fill="white"/>
<path d="M24.888 41.9842C21.8607 42.1925 18.9073 39.2633 19.0265 36.0111C19.1488 32.6306 21.7369 30.0349 25.143 30.0892C28.3696 30.1406 31.006 32.9068 30.9532 36.1846C30.9004 39.4851 28.2549 42.0144 24.8895 41.9842H24.888ZM25.0465 32.0723C22.7994 32.0391 20.9386 33.8244 20.922 36.0292C20.9054 38.231 22.739 40.0873 24.9604 40.1205C27.0959 40.1522 28.9174 38.3684 28.9777 36.1862C29.0411 33.8983 27.3283 32.1055 25.0449 32.0723H25.0465Z" fill="white"/>
<path d="M24.9574 21.9973C21.6901 22.0274 18.7171 22.8771 16.2633 25.171C16.0128 25.4049 15.7306 25.6162 15.4318 25.7852C14.9941 26.0357 14.4901 26.0025 14.2441 25.5815C14.0796 25.3008 14.0901 24.8073 14.2244 24.4934C14.3693 24.1538 14.73 23.8958 15.0258 23.6347C18.2659 20.7869 22.0946 19.803 26.3171 20.1078C29.5754 20.3417 32.4865 21.4359 34.9268 23.6603C35.1818 23.8927 35.4323 24.1312 35.6632 24.3877C36.0058 24.7695 36.0465 25.1951 35.7055 25.592C35.3161 26.0448 34.8422 26.0251 34.3759 25.7203C34.1284 25.5588 33.9036 25.3611 33.6863 25.1604C31.2233 22.8846 28.2519 22.0259 24.9619 21.9973H24.9574Z" fill="white"/>
</svg>
